<?xml version="1.0" standalone="no"?>
<!DOCTYPE svg PUBLIC "-//W3C//DTD SVG 20010904//EN"
 "http://www.w3.org/TR/2001/REC-SVG-20010904/DTD/svg10.dtd">
<svg version="1.0" xmlns="http://www.w3.org/2000/svg"
 width="500.000000pt" height="500.000000pt" viewBox="0 0 500.000000 500.000000"
 preserveAspectRatio="xMidYMid meet">
<metadata>
Created by potrace 1.16, written by Peter Selinger 2001-2019
</metadata>
<g transform="translate(0.000000,500.000000) scale(0.100000,-0.100000)"
fill="#000000" stroke="none">
<path d="M3860 3831 c-114 -38 -221 -128 -240 -204 -6 -23 -23 -73 -38 -112
-25 -66 -27 -78 -24 -204 3 -120 6 -139 28 -180 13 -25 24 -53 24 -61 0 -19
194 -264 244 -308 21 -18 42 -29 49 -26 7 4 9 4 5 0 -3 -4 2 -39 13 -77 14
-50 19 -101 19 -191 0 -111 -2 -128 -25 -172 -16 -32 -25 -66 -25 -98 0 -44
-2 -48 -24 -48 -14 0 -28 5 -32 11 -11 19 -20 178 -13 238 5 41 3 60 -8 72
-17 20 -106 39 -179 39 -80 0 -86 -13 -91 -206 -4 -168 2 -207 42 -244 13 -12
27 -35 30 -51 8 -37 62 -81 129 -107 28 -11 69 -31 90 -46 21 -14 43 -26 49
-26 15 0 -26 -42 -77 -78 l-44 -31 -6 39 c-7 44 -20 54 -84 65 -31 5 -43 11
-41 23 3 33 -2 40 -33 51 -22 8 -34 8 -36 1 -2 -6 -10 -7 -21 0 -38 20 -131
-12 -131 -45 0 -21 -16 -19 -40 5 -31 31 -54 24 -104 -27 -50 -52 -50 -53 -46
-203 2 -82 10 -100 46 -100 14 0 30 -10 39 -23 8 -13 27 -29 41 -35 40 -19
120 -14 165 8 33 17 46 19 77 10 55 -15 87 -12 126 11 23 13 37 30 41 50 l7
29 25 -20 c33 -25 79 -25 121 0 18 11 36 20 40 20 5 0 30 -30 57 -67 26 -38
55 -74 64 -80 36 -31 101 2 101 50 0 13 -13 43 -30 65 -20 27 -30 54 -30 77 0
32 3 35 43 46 51 14 167 16 258 5 65 -9 67 -8 84 18 38 58 -3 207 -92 330 -21
28 -64 79 -97 114 l-61 64 -2 141 c-1 78 -3 149 -3 157 -1 8 2 65 6 126 8 130
2 173 -31 213 -20 22 -24 36 -19 60 6 29 5 31 -24 31 -25 0 -35 6 -46 29 -9
16 -55 69 -103 117 -140 141 -181 240 -150 369 11 51 18 62 41 70 25 9 31 6
62 -27 30 -33 33 -42 32 -95 -1 -38 4 -69 16 -92 16 -30 20 -33 49 -26 18 4
49 7 71 6 25 -1 53 7 81 23 39 23 43 29 48 78 10 81 -17 217 -60 301 -27 54
-83 106 -137 126 -60 22 -179 34 -216 22z m208 -95 c73 -38 132 -170 132 -297
0 -79 -9 -89 -77 -81 l-43 4 0 50 c0 59 -10 80 -63 136 -34 35 -48 42 -79 42
-48 0 -103 -22 -116 -47 -18 -34 -35 -155 -29 -212 8 -92 64 -190 162 -288 46
-44 102 -110 125 -145 24 -34 54 -75 67 -89 31 -34 40 -110 24 -216 -8 -58 -9
-99 0 -158 6 -44 8 -103 4 -132 -6 -46 -9 -53 -28 -53 -20 -1 -21 -2 -4 -14
23 -18 24 -117 1 -137 -8 -7 -23 -26 -32 -43 -12 -24 -17 -27 -20 -13 -2 9 -8
15 -12 12 -6 -3 -5 -16 0 -30 7 -19 5 -26 -15 -39 -13 -9 -33 -17 -43 -19 -10
-1 -31 -12 -47 -23 -67 -47 -72 -48 -122 -15 -26 17 -50 31 -55 31 -4 0 -29
10 -54 22 -35 16 -51 31 -65 62 -10 23 -29 54 -41 69 -24 30 -24 20 -18 260 2
75 0 74 84 59 l39 -7 -2 -70 c-3 -103 15 -203 46 -247 15 -22 23 -46 20 -57
-3 -12 1 -22 10 -25 24 -9 71 -7 78 4 3 6 15 10 25 10 13 0 17 5 14 15 -4 8
-1 15 6 15 7 0 10 7 6 16 -4 9 -1 22 4 30 6 7 14 39 16 71 3 32 15 75 26 96
17 33 21 62 24 198 3 101 1 159 -5 159 -15 0 -31 68 -28 119 l2 45 -45 8 c-36
6 -53 17 -82 50 -81 92 -177 224 -184 253 -4 17 -15 42 -25 56 -14 21 -18 49
-20 145 -2 113 -1 123 29 196 18 42 32 85 32 95 0 29 60 90 120 123 51 29 61
31 140 27 55 -2 97 -9 118 -21z m308 -1702 c180 -250 151 -445 -46 -303 l-42
31 51 52 c58 59 63 84 31 152 -19 39 -82 104 -123 129 -13 8 -16 18 -11 48 l7
38 44 -43 c25 -24 65 -70 89 -104z m-87 10 c40 -36 91 -123 91 -156 0 -25 -39
-23 -71 5 -38 32 -87 103 -94 137 -13 60 17 66 74 14z m-47 -100 c18 -27 50
-60 71 -73 l38 -25 -35 -35 -36 -35 -35 34 c-20 19 -52 58 -72 87 -34 50 -35
54 -20 71 10 10 17 21 17 25 0 3 5 18 11 34 l12 28 8 -31 c5 -18 24 -54 41
-80z m50 -203 l51 -41 -69 0 c-92 0 -179 -22 -271 -67 l-75 -38 -44 49 c-24
26 -47 59 -50 73 -10 38 57 98 183 164 l107 55 58 -77 c32 -43 81 -96 110
-118z m-674 120 c3 -16 -6 -31 -29 -51 l-34 -27 43 -8 c62 -10 111 -9 126 4
22 19 26 -27 17 -226 -1 -29 -47 -53 -100 -53 -65 0 -73 6 -55 42 11 20 14 44
10 72 -16 116 -23 160 -25 147 0 -9 -8 -4 -21 12 -26 33 -25 47 3 47 13 0 32
7 43 16 18 15 18 15 -3 5 -32 -16 -43 -13 -40 10 7 43 60 51 65 10z m-217 -83
l2 -23 4 23 c4 21 8 22 56 16 64 -8 84 -18 92 -45 10 -30 1 -33 -36 -10 -58
35 -103 27 -181 -32 -45 -35 -47 -35 -51 -14 -3 12 -5 6 -4 -13 2 -98 -3 -140
-18 -140 -24 0 -35 35 -35 118 l0 79 45 5 c28 4 56 15 75 32 39 32 50 33 51 4z
m121 -53 c68 -46 88 -163 34 -199 -28 -18 -36 -12 -35 23 l1 26 8 -25 c7 -23
8 -23 9 -3 1 12 -3 25 -9 28 -5 3 -10 17 -10 30 0 32 -44 81 -86 97 -29 10
-32 14 -17 19 16 7 16 8 -2 9 -17 2 -16 3 5 10 43 14 64 11 102 -15z m-62 -55
c16 -12 34 -29 39 -38 14 -27 18 -137 4 -135 -6 1 -17 -4 -23 -12 -18 -22 -98
-19 -137 5 -61 37 -70 148 -15 191 33 26 86 22 132 -11z m641 -92 c54 -77 58
-87 49 -114 -11 -27 -43 -36 -68 -18 -19 13 -112 136 -112 148 0 5 70 45 81
46 3 0 25 -28 50 -62z"/>
<path d="M3347 1653 c-36 -41 -29 -121 14 -143 29 -16 84 -12 102 8 34 38 11
133 -35 146 -39 10 -64 7 -81 -11z"/>
<path d="M1539 3821 c-71 -23 -68 -14 -67 -199 0 -92 -2 -514 -5 -939 l-5
-772 62 -14 c53 -12 67 -12 111 1 28 9 70 21 95 27 62 17 71 41 65 175 -3 77
-2 94 5 65 5 -22 9 -52 9 -67 1 -15 10 -53 22 -84 17 -45 27 -59 55 -70 56
-24 96 -18 140 20 l39 34 -2 443 c-1 244 -5 464 -7 489 -4 31 3 15 24 -54 19
-65 35 -152 45 -250 9 -83 22 -212 31 -286 8 -74 14 -157 14 -185 1 -99 58
-175 132 -175 45 0 113 31 128 59 5 11 10 56 10 100 0 60 9 116 34 214 19 72
42 193 51 267 32 252 34 243 32 -165 -2 -365 0 -403 16 -435 34 -70 103 -88
207 -53 49 16 55 21 62 53 3 19 6 400 5 845 l-2 810 -22 41 c-26 48 -62 68
-99 54 -15 -6 -59 -8 -103 -4 -74 6 -77 5 -103 -23 -40 -42 -108 -260 -108
-344 0 -42 -11 -100 -31 -169 -17 -58 -34 -139 -38 -180 l-7 -75 -17 37 c-11
24 -17 64 -17 110 0 79 -29 246 -55 318 -9 25 -25 90 -36 145 -11 55 -26 111
-32 124 -15 31 -66 48 -184 63 -84 11 -95 10 -128 -8 -20 -10 -43 -28 -50 -38
-13 -18 -14 -17 -20 10 -14 59 -17 65 -43 75 -36 14 -181 21 -213 10z m182
-173 c-1 -57 -2 -285 -4 -508 -2 -400 -2 -459 5 -898 2 -123 0 -229 -4 -235
-8 -13 -115 -47 -151 -47 l-27 0 4 893 c2 490 4 893 5 895 1 1 40 2 87 2 l86
0 -1 -102z m329 41 c30 -5 57 -12 61 -17 4 -4 17 -52 28 -107 11 -55 27 -120
36 -145 24 -68 46 -193 54 -310 4 -66 13 -118 24 -139 9 -19 17 -40 17 -48 0
-22 47 -63 73 -63 35 0 63 66 72 169 4 46 20 130 36 185 18 64 29 124 29 164
0 45 11 98 36 180 20 65 40 122 45 127 4 6 48 10 101 9 l93 -1 10 -30 c14 -42
14 -1608 0 -1622 -6 -6 -32 -14 -57 -17 -42 -6 -47 -4 -64 21 -20 31 -20 26
-15 416 l4 286 29 11 c22 8 28 17 28 39 0 34 -16 53 -43 53 -19 0 -20 5 -14
83 10 147 1 175 -64 191 -31 7 -42 -13 -58 -104 -16 -88 -35 -156 -50 -173 -9
-11 -11 -30 -7 -59 3 -24 6 -47 7 -53 4 -41 -28 -251 -53 -345 -44 -167 -49
-199 -42 -261 6 -55 6 -56 -24 -68 -17 -7 -39 -10 -50 -7 -29 10 -52 66 -52
128 0 29 -7 116 -15 193 -8 77 -22 205 -30 285 -12 111 -27 183 -64 310 -47
164 -48 165 -78 168 -59 6 -89 -80 -74 -215 5 -48 13 -269 16 -490 l6 -402
-26 -17 c-39 -25 -69 -7 -84 50 -13 54 -15 316 -2 316 11 0 11 183 0 190 -5 3
-9 256 -11 562 -3 549 -3 557 17 567 20 9 53 7 155 -10z m-240 -1252 l-5 -62
-9 50 c-10 60 -9 677 2 790 5 55 9 -47 12 -318 3 -219 3 -426 0 -460z"/>
<path d="M2943 3786 c-20 -25 -20 -44 -21 -918 -1 -673 2 -902 11 -928 l12
-35 225 -5 c137 -3 239 -1 260 5 44 12 70 60 70 127 0 38 -6 54 -29 80 l-28
32 -100 -3 c-84 -2 -102 0 -114 15 -11 14 -15 73 -18 297 l-3 280 41 -6 c23
-3 41 -2 41 3 0 4 22 10 49 14 117 15 132 33 132 151 -1 98 -11 129 -44 133
-15 2 -27 8 -27 13 0 7 -33 9 -90 6 -83 -4 -90 -3 -91 14 -1 10 -2 23 -3 29
-1 5 21 28 48 50 l50 41 -52 -7 -52 -7 0 161 c0 159 0 160 25 176 13 9 36 16
49 16 26 0 32 -10 38 -70 3 -24 4 -24 26 12 17 27 34 40 61 48 45 12 66 33 79
80 15 59 -9 187 -40 206 -7 4 -119 10 -249 12 l-237 3 -19 -25z m464 -61 c2
-1 6 -29 9 -62 l7 -60 -97 -8 c-54 -4 -98 -5 -100 -3 -1 1 -12 16 -24 32 l-22
29 0 -41 c0 -23 -9 -56 -21 -76 -20 -34 -20 -47 -17 -275 3 -270 2 -266 84
-297 34 -13 60 -15 109 -10 l65 7 0 -66 c0 -76 4 -74 -134 -78 -85 -2 -90 -3
-110 -30 -19 -25 -21 -45 -24 -168 -4 -168 13 -471 28 -499 22 -40 68 -55 168
-53 l92 2 0 -48 0 -47 -210 -2 c-165 -2 -210 0 -210 10 0 7 -2 403 -3 880 l-2
867 55 4 c50 4 352 -3 357 -8z"/>
<path d="M437 3760 c-45 -25 -61 -59 -53 -120 3 -25 5 -340 4 -700 -2 -750 -1
-830 13 -885 19 -76 31 -96 67 -110 73 -31 139 -8 171 60 18 38 19 58 11 410
-5 204 -9 406 -8 450 l0 80 19 -60 c25 -76 45 -203 59 -375 6 -74 15 -164 20
-200 5 -36 10 -95 10 -131 0 -116 55 -199 131 -199 48 0 97 20 124 50 17 19
20 34 17 100 -2 64 4 104 33 212 19 73 42 192 51 263 9 72 19 157 24 190 5 37
8 -95 7 -340 -1 -438 -1 -437 59 -484 47 -37 199 -17 224 29 12 22 11 -41 10
905 -2 758 -2 760 -23 805 -26 54 -62 75 -102 60 -16 -6 -59 -8 -104 -4 -73 6
-77 5 -100 -19 -38 -41 -111 -274 -111 -354 0 -42 -10 -101 -29 -167 -16 -55
-33 -135 -38 -176 -9 -73 -10 -74 -22 -45 -7 17 -17 82 -21 145 -10 136 -14
156 -50 280 -16 52 -36 135 -46 183 -9 49 -24 97 -33 107 -19 23 -108 46 -206
54 -59 5 -76 3 -108 -14z m163 -66 c94 -11 96 -13 115 -101 8 -43 29 -125 44
-183 38 -138 41 -154 50 -290 6 -84 14 -128 30 -162 11 -26 21 -51 21 -57 0
-15 41 -41 65 -41 34 0 63 66 71 161 3 46 19 130 35 185 19 66 29 127 30 170
0 53 10 98 42 194 l42 125 94 -1 c88 -2 95 -3 106 -25 9 -18 12 -221 11 -826
0 -441 -4 -804 -7 -807 -4 -4 -29 -9 -57 -13 -85 -10 -84 -15 -81 384 l2 338
29 12 c23 10 28 18 28 48 0 32 -3 36 -31 42 l-31 6 7 82 c4 46 4 103 0 128 -7
42 -9 46 -46 55 -38 10 -40 9 -54 -19 -8 -15 -15 -42 -15 -59 0 -33 -33 -142
-58 -196 -11 -22 -13 -41 -6 -70 4 -21 7 -46 7 -54 -15 -153 -30 -249 -59
-360 -26 -99 -35 -155 -35 -209 1 -59 -3 -77 -17 -87 -27 -21 -56 -16 -82 11
-21 23 -25 39 -31 138 -14 207 -40 478 -55 567 -7 38 -78 294 -94 335 -7 19
-17 25 -39 25 -25 0 -33 -7 -50 -43 -25 -51 -24 -38 -12 -412 5 -165 10 -380
10 -477 l1 -178 -25 -16 c-32 -21 -61 -10 -76 29 -16 42 -25 313 -11 330 6 7
11 50 10 96 0 45 3 85 6 88 3 3 -1 11 -9 17 -13 9 -15 89 -15 561 -1 516 0
550 17 563 10 7 29 10 43 8 14 -3 50 -8 80 -12z"/>
</g>
</svg>
